<mxfile host="65bd71144e">
    <diagram id="r5-r_rpe-W_XDR8gnN_N" name="Page-1">
        <mxGraphModel dx="2761" dy="2177" grid="1" gridSize="10" guides="1" tooltips="1" connect="1" arrows="1" fold="1" page="1" pageScale="1" pageWidth="850" pageHeight="1100" math="0" shadow="0">
            <root>
                <mxCell id="0"/>
                <mxCell id="1" parent="0"/>
                <mxCell id="177" value="" style="rounded=1;whiteSpace=wrap;html=1;fontSize=12;" vertex="1" parent="1">
                    <mxGeometry x="-20" y="-125" width="1360" height="930" as="geometry"/>
                </mxCell>
                <mxCell id="104" value="" style="group" vertex="1" connectable="0" parent="1">
                    <mxGeometry x="20" y="280" width="720" height="400" as="geometry"/>
                </mxCell>
                <mxCell id="126" value="" style="group" vertex="1" connectable="0" parent="104">
                    <mxGeometry x="80" y="-60" width="640" height="460" as="geometry"/>
                </mxCell>
                <mxCell id="21" value="" style="rounded=0;whiteSpace=wrap;html=1;fontSize=20;" vertex="1" parent="126">
                    <mxGeometry y="10" width="640" height="450" as="geometry"/>
                </mxCell>
                <mxCell id="105" value="" style="group" vertex="1" connectable="0" parent="126">
                    <mxGeometry x="285.90163934426226" y="340" width="342.3" height="110" as="geometry"/>
                </mxCell>
                <mxCell id="51" value="" style="rounded=0;whiteSpace=wrap;html=1;fontSize=12;" vertex="1" parent="105">
                    <mxGeometry y="-30" width="342.3" height="140" as="geometry"/>
                </mxCell>
                <mxCell id="50" value="Artifacts" style="shape=note;whiteSpace=wrap;html=1;backgroundOutline=1;darkOpacity=0.05;fontSize=12;" vertex="1" parent="105">
                    <mxGeometry x="11.8" y="10" width="144.96" height="80" as="geometry"/>
                </mxCell>
                <mxCell id="52" value="Blueprint" style="shape=note;whiteSpace=wrap;html=1;backgroundOutline=1;darkOpacity=0.05;fontSize=12;" vertex="1" parent="105">
                    <mxGeometry x="177.05" y="10" width="154.55" height="80" as="geometry"/>
                </mxCell>
                <mxCell id="101" value="Source Files" style="rounded=0;whiteSpace=wrap;html=1;fontSize=12;" vertex="1" parent="126">
                    <mxGeometry x="285.9" y="170" width="344.1" height="70" as="geometry"/>
                </mxCell>
                <mxCell id="108" value="Lockfile" style="shape=note;whiteSpace=wrap;html=1;backgroundOutline=1;darkOpacity=0.05;fontSize=12;" vertex="1" parent="126">
                    <mxGeometry x="285.9" y="90" width="344.1" height="70" as="geometry"/>
                </mxCell>
                <mxCell id="102" value="Auxiliary Files" style="rounded=0;whiteSpace=wrap;html=1;fontSize=12;" vertex="1" parent="126">
                    <mxGeometry x="285.9" y="250" width="344.1" height="50" as="geometry"/>
                </mxCell>
                <mxCell id="116" value="" style="group" vertex="1" connectable="0" parent="126">
                    <mxGeometry x="40" y="100" width="230" height="340" as="geometry"/>
                </mxCell>
                <mxCell id="48" value="" style="shape=note;whiteSpace=wrap;html=1;backgroundOutline=1;darkOpacity=0.05;fontSize=12;" vertex="1" parent="116">
                    <mxGeometry width="230" height="330" as="geometry"/>
                </mxCell>
                <mxCell id="120" value="" style="rounded=0;whiteSpace=wrap;html=1;fontSize=12;" vertex="1" parent="116">
                    <mxGeometry x="10" y="213.71" width="190" height="96.29" as="geometry"/>
                </mxCell>
                <mxCell id="115" value="Manifest" style="text;html=1;strokeColor=none;fillColor=none;align=center;verticalAlign=middle;whiteSpace=wrap;rounded=0;fontSize=12;" vertex="1" parent="116">
                    <mxGeometry x="64.92" y="9.714285714285714" width="70.82" height="19.428571428571427" as="geometry"/>
                </mxCell>
                <mxCell id="114" value="&quot;foo = 1.0.0&quot;" style="rounded=0;whiteSpace=wrap;html=1;" vertex="1" parent="116">
                    <mxGeometry x="25.17728337236536" y="271.9958383679875" width="150.3096955503513" height="19.640502157708905" as="geometry"/>
                </mxCell>
                <mxCell id="113" value="&quot;bar = 2.3.0&quot;" style="rounded=0;whiteSpace=wrap;html=1;" vertex="1" parent="116">
                    <mxGeometry x="25.1753161592506" y="242.85535930056605" width="150.3096955503513" height="19.640502157708905" as="geometry"/>
                </mxCell>
                <mxCell id="121" value="" style="rounded=0;whiteSpace=wrap;html=1;fontSize=12;" vertex="1" parent="116">
                    <mxGeometry x="10" y="38.857142857142854" width="190" height="155.42857142857142" as="geometry"/>
                </mxCell>
                <mxCell id="122" value="Dependencies" style="text;html=1;strokeColor=none;fillColor=none;align=center;verticalAlign=middle;whiteSpace=wrap;rounded=0;fontSize=12;" vertex="1" parent="116">
                    <mxGeometry x="70.32999999999998" y="213.7142857142857" width="60" height="29.142857142857142" as="geometry"/>
                </mxCell>
                <mxCell id="123" value="Ip" style="text;html=1;strokeColor=none;fillColor=none;align=center;verticalAlign=middle;whiteSpace=wrap;rounded=0;fontSize=12;" vertex="1" parent="116">
                    <mxGeometry x="70.32999999999998" y="38.857142857142854" width="60" height="29.142857142857142" as="geometry"/>
                </mxCell>
                <mxCell id="124" value="&quot;name = cpu&quot;" style="rounded=0;whiteSpace=wrap;html=1;" vertex="1" parent="116">
                    <mxGeometry x="25.1753161592506" y="67.99821644342315" width="150.3096955503513" height="19.640502157708905" as="geometry"/>
                </mxCell>
                <mxCell id="125" value="&quot;version = 0.9.0&quot;" style="rounded=0;whiteSpace=wrap;html=1;" vertex="1" parent="116">
                    <mxGeometry x="25.175316159250606" y="97.14107358628029" width="150.3096955503513" height="19.640502157708905" as="geometry"/>
                </mxCell>
                <mxCell id="127" value="&quot;source = https://...&quot;" style="rounded=0;whiteSpace=wrap;html=1;" vertex="1" parent="116">
                    <mxGeometry x="25.1753161592506" y="126.28393072913744" width="150.3096955503513" height="19.640502157708905" as="geometry"/>
                </mxCell>
                <mxCell id="128" value="&quot;launch = [&quot;C1&quot;]&quot;" style="rounded=0;whiteSpace=wrap;html=1;" vertex="1" parent="116">
                    <mxGeometry x="25.1753161592506" y="155.42678787199458" width="150.3096955503513" height="19.640502157708905" as="geometry"/>
                </mxCell>
                <mxCell id="119" value="" style="endArrow=classic;html=1;rounded=0;fontSize=12;exitX=0;exitY=0;exitDx=91.23000000000002;exitDy=0;exitPerimeter=0;entryX=0;entryY=0;entryDx=157.05;entryDy=0;entryPerimeter=0;" edge="1" parent="126" source="48" target="108">
                    <mxGeometry width="50" height="50" relative="1" as="geometry">
                        <mxPoint x="340" y="70" as="sourcePoint"/>
                        <mxPoint x="390" y="20" as="targetPoint"/>
                        <Array as="points">
                            <mxPoint x="131" y="60"/>
                            <mxPoint x="443" y="59"/>
                        </Array>
                    </mxGeometry>
                </mxCell>
                <mxCell id="106" value="$ &lt;b&gt;&lt;u&gt;orbit lock&lt;/u&gt;&lt;/b&gt;" style="rounded=1;whiteSpace=wrap;html=1;fontSize=12;" vertex="1" parent="126">
                    <mxGeometry x="200.00475409836065" y="40" width="106.22950819672131" height="38.46" as="geometry"/>
                </mxCell>
                <mxCell id="103" value="Local Ip" style="text;html=1;strokeColor=none;fillColor=none;align=center;verticalAlign=middle;whiteSpace=wrap;rounded=0;fontSize=12;" vertex="1" parent="126">
                    <mxGeometry x="284.59016393442624" y="10" width="70.81967213114754" height="30" as="geometry"/>
                </mxCell>
                <mxCell id="20" value="" style="group" vertex="1" connectable="0" parent="1">
                    <mxGeometry x="190" y="-40" width="660" height="230" as="geometry"/>
                </mxCell>
                <mxCell id="2" value="" style="rounded=0;whiteSpace=wrap;html=1;" vertex="1" parent="20">
                    <mxGeometry x="-40" y="-40" width="640" height="263.43" as="geometry"/>
                </mxCell>
                <mxCell id="66" value="" style="endArrow=classic;html=1;fontSize=12;exitX=0.5;exitY=1;exitDx=0;exitDy=0;entryX=0.75;entryY=1;entryDx=0;entryDy=0;rounded=0;" edge="1" parent="20" source="6" target="5">
                    <mxGeometry width="50" height="50" relative="1" as="geometry">
                        <mxPoint x="380" y="157.71428571428572" as="sourcePoint"/>
                        <mxPoint x="330" y="120.91428571428571" as="targetPoint"/>
                        <Array as="points">
                            <mxPoint x="504" y="190"/>
                            <mxPoint x="317" y="190"/>
                        </Array>
                    </mxGeometry>
                </mxCell>
                <mxCell id="68" value="$ &lt;b&gt;&lt;u&gt;orbit download&lt;/u&gt;&lt;/b&gt;" style="rounded=1;whiteSpace=wrap;html=1;fontSize=12;" vertex="1" parent="20">
                    <mxGeometry x="340" y="170.00285714285715" width="110" height="38.456" as="geometry"/>
                </mxCell>
                <mxCell id="64" value="" style="group" vertex="1" connectable="0" parent="20">
                    <mxGeometry x="430" y="38.45" width="148.57" height="113.13" as="geometry"/>
                </mxCell>
                <mxCell id="6" value="" style="rounded=0;whiteSpace=wrap;html=1;" vertex="1" parent="64">
                    <mxGeometry width="148.57" height="107.83020792467633" as="geometry"/>
                </mxCell>
                <mxCell id="7" value="&quot;C1&quot;" style="rounded=0;whiteSpace=wrap;html=1;" vertex="1" parent="64">
                    <mxGeometry x="10.612142857142889" y="20.21816398587681" width="127.3457142857143" height="20.218163985876814" as="geometry"/>
                </mxCell>
                <mxCell id="8" value="&quot;C2&quot;" style="rounded=0;whiteSpace=wrap;html=1;" vertex="1" parent="64">
                    <mxGeometry x="10.612142857142889" y="47.175715967045896" width="127.3457142857143" height="20.218163985876814" as="geometry"/>
                </mxCell>
                <mxCell id="15" value="Channels" style="text;html=1;strokeColor=none;fillColor=none;align=center;verticalAlign=middle;whiteSpace=wrap;rounded=0;" vertex="1" parent="64">
                    <mxGeometry x="42.44857142857144" width="63.67285714285715" height="20.218163985876814" as="geometry"/>
                </mxCell>
                <mxCell id="19" value="&lt;font style=&quot;font-size: 20px;&quot;&gt;...&lt;/font&gt;" style="text;html=1;strokeColor=none;fillColor=none;align=center;verticalAlign=middle;whiteSpace=wrap;rounded=0;rotation=90;" vertex="1" parent="64">
                    <mxGeometry x="59.89" y="72.88" width="28.78" height="20.22" as="geometry"/>
                </mxCell>
                <mxCell id="71" value="" style="endArrow=classic;html=1;fontSize=12;exitX=0.5;exitY=1;exitDx=0;exitDy=0;entryX=0.75;entryY=1;entryDx=0;entryDy=0;rounded=0;" edge="1" parent="20" target="3">
                    <mxGeometry width="50" height="50" relative="1" as="geometry">
                        <mxPoint x="244.28499999999985" y="150.00020792467646" as="sourcePoint"/>
                        <mxPoint x="51.42750000000001" y="153.72" as="targetPoint"/>
                        <Array as="points">
                            <mxPoint x="244" y="193.72"/>
                            <mxPoint x="91" y="194"/>
                        </Array>
                    </mxGeometry>
                </mxCell>
                <mxCell id="72" value="$ &lt;b&gt;&lt;u&gt;orbit install&lt;/u&gt;&lt;/b&gt;" style="rounded=1;whiteSpace=wrap;html=1;fontSize=12;" vertex="1" parent="20">
                    <mxGeometry x="128.57" y="170" width="90" height="38.46" as="geometry"/>
                </mxCell>
                <mxCell id="70" value="" style="group" vertex="1" connectable="0" parent="20">
                    <mxGeometry x="-20" y="41.31" width="148.57" height="108.69" as="geometry"/>
                </mxCell>
                <mxCell id="3" value="" style="rounded=0;whiteSpace=wrap;html=1;" vertex="1" parent="70">
                    <mxGeometry width="148.57" height="108.69" as="geometry"/>
                </mxCell>
                <mxCell id="17" value="Cache" style="text;html=1;strokeColor=none;fillColor=none;align=center;verticalAlign=middle;whiteSpace=wrap;rounded=0;" vertex="1" parent="70">
                    <mxGeometry x="42.44857142857143" y="-1.7763568394002505e-15" width="63.67285714285715" height="20.379375" as="geometry"/>
                </mxCell>
                <mxCell id="97" value="&quot;foo:1.0.0&quot;" style="rounded=0;whiteSpace=wrap;html=1;" vertex="1" parent="70">
                    <mxGeometry x="10.612142857142885" y="20.37816398587681" width="127.3457142857143" height="20.218163985876814" as="geometry"/>
                </mxCell>
                <mxCell id="98" value="&quot;bar:2.3.0&quot;" style="rounded=0;whiteSpace=wrap;html=1;" vertex="1" parent="70">
                    <mxGeometry x="10.612142857142885" y="47.3357159670459" width="127.3457142857143" height="20.218163985876814" as="geometry"/>
                </mxCell>
                <mxCell id="99" value="&lt;font style=&quot;font-size: 20px;&quot;&gt;...&lt;/font&gt;" style="text;html=1;strokeColor=none;fillColor=none;align=center;verticalAlign=middle;whiteSpace=wrap;rounded=0;rotation=90;" vertex="1" parent="70">
                    <mxGeometry x="59.89" y="73.04" width="28.78" height="20.22" as="geometry"/>
                </mxCell>
                <mxCell id="69" value="" style="group" vertex="1" connectable="0" parent="20">
                    <mxGeometry x="205.71" y="38.45" width="148.57" height="111.55" as="geometry"/>
                </mxCell>
                <mxCell id="5" value="" style="rounded=0;whiteSpace=wrap;html=1;" vertex="1" parent="69">
                    <mxGeometry width="148.57" height="111.55" as="geometry"/>
                </mxCell>
                <mxCell id="16" value="Archive" style="text;html=1;strokeColor=none;fillColor=none;align=center;verticalAlign=middle;whiteSpace=wrap;rounded=0;" vertex="1" parent="69">
                    <mxGeometry x="49.28" y="-0.92" width="50" height="20.92" as="geometry"/>
                </mxCell>
                <mxCell id="94" value="&quot;foo:1.0.0&quot;" style="rounded=0;whiteSpace=wrap;html=1;" vertex="1" parent="69">
                    <mxGeometry x="10.612142857142885" y="19.998163985876808" width="127.3457142857143" height="20.218163985876814" as="geometry"/>
                </mxCell>
                <mxCell id="95" value="&quot;bar:2.3.0&quot;" style="rounded=0;whiteSpace=wrap;html=1;" vertex="1" parent="69">
                    <mxGeometry x="10.612142857142885" y="46.9557159670459" width="127.3457142857143" height="20.218163985876814" as="geometry"/>
                </mxCell>
                <mxCell id="96" value="&lt;font style=&quot;font-size: 20px;&quot;&gt;...&lt;/font&gt;" style="text;html=1;strokeColor=none;fillColor=none;align=center;verticalAlign=middle;whiteSpace=wrap;rounded=0;rotation=90;" vertex="1" parent="69">
                    <mxGeometry x="59.89" y="72.66" width="28.78" height="20.22" as="geometry"/>
                </mxCell>
                <mxCell id="175" value="" style="endArrow=classic;html=1;fontSize=12;rounded=0;entryX=0.25;entryY=0;entryDx=0;entryDy=0;exitX=0.75;exitY=0;exitDx=0;exitDy=0;" edge="1" parent="20" source="3" target="5">
                    <mxGeometry width="50" height="50" relative="1" as="geometry">
                        <mxPoint x="90" y="-103.58208955223881" as="sourcePoint"/>
                        <mxPoint x="82.42750000000001" y="-130" as="targetPoint"/>
                        <Array as="points">
                            <mxPoint x="91"/>
                            <mxPoint x="243"/>
                        </Array>
                    </mxGeometry>
                </mxCell>
                <mxCell id="18" value="Catalog" style="text;html=1;strokeColor=none;fillColor=none;align=center;verticalAlign=middle;whiteSpace=wrap;rounded=0;" vertex="1" parent="20">
                    <mxGeometry x="248.15714285714284" y="-40" width="63.6734693877551" height="30.979591836734702" as="geometry"/>
                </mxCell>
                <mxCell id="43" value="" style="group" vertex="1" connectable="0" parent="1">
                    <mxGeometry x="840" y="50" width="400" height="220" as="geometry"/>
                </mxCell>
                <mxCell id="24" value="" style="rounded=0;whiteSpace=wrap;html=1;fontSize=20;" vertex="1" parent="43">
                    <mxGeometry width="400.00000000000006" height="219.99999999999997" as="geometry"/>
                </mxCell>
                <mxCell id="32" value="" style="group" vertex="1" connectable="0" parent="43">
                    <mxGeometry x="5.63" y="45.52" width="344.37" height="166.9" as="geometry"/>
                </mxCell>
                <mxCell id="25" value="" style="rounded=0;whiteSpace=wrap;html=1;fontSize=20;" vertex="1" parent="32">
                    <mxGeometry width="344.37000000000006" height="166.9" as="geometry"/>
                </mxCell>
                <mxCell id="26" value="" style="rounded=0;whiteSpace=wrap;html=1;fontSize=20;" vertex="1" parent="32">
                    <mxGeometry x="8.830000000000002" y="37.088888888888896" width="97.13000000000002" height="123.62962962962966" as="geometry"/>
                </mxCell>
                <mxCell id="29" value="&lt;font style=&quot;font-size: 12px;&quot;&gt;Settings&lt;/font&gt;" style="rounded=0;whiteSpace=wrap;html=1;fontSize=20;" vertex="1" parent="32">
                    <mxGeometry x="123.62000000000002" y="37.088888888888896" width="97.13000000000002" height="123.62962962962966" as="geometry"/>
                </mxCell>
                <mxCell id="30" value="&lt;font style=&quot;font-size: 12px;&quot;&gt;Protocols&lt;/font&gt;" style="rounded=0;whiteSpace=wrap;html=1;fontSize=20;" vertex="1" parent="32">
                    <mxGeometry x="238.41000000000005" y="37.088888888888896" width="97.13000000000002" height="123.62962962962966" as="geometry"/>
                </mxCell>
                <mxCell id="31" value="&lt;font style=&quot;font-size: 12px;&quot;&gt;&quot;P1&quot;&lt;/font&gt;" style="text;html=1;strokeColor=none;fillColor=none;align=center;verticalAlign=middle;whiteSpace=wrap;rounded=0;fontSize=20;" vertex="1" parent="32">
                    <mxGeometry x="59.3741379310345" y="6.182886363636365" width="225.6217241379311" height="18.541072727272734" as="geometry"/>
                </mxCell>
                <mxCell id="77" value="Targets" style="text;html=1;strokeColor=none;fillColor=none;align=center;verticalAlign=middle;whiteSpace=wrap;rounded=0;fontSize=12;" vertex="1" parent="32">
                    <mxGeometry x="27.399999999999864" y="37.089999999999996" width="60" height="30" as="geometry"/>
                </mxCell>
                <mxCell id="78" value="&quot;T1&quot;" style="rounded=0;whiteSpace=wrap;html=1;fontSize=12;" vertex="1" parent="32">
                    <mxGeometry x="16.09" y="63.45" width="82.6" height="26.55" as="geometry"/>
                </mxCell>
                <mxCell id="91" value="&quot;T2&quot;" style="rounded=0;whiteSpace=wrap;html=1;fontSize=12;" vertex="1" parent="32">
                    <mxGeometry x="16.09999999999991" y="94.47999999999999" width="82.6" height="26.55" as="geometry"/>
                </mxCell>
                <mxCell id="92" value="&lt;font style=&quot;font-size: 20px;&quot;&gt;...&lt;/font&gt;" style="text;html=1;strokeColor=none;fillColor=none;align=center;verticalAlign=middle;whiteSpace=wrap;rounded=0;rotation=90;" vertex="1" parent="32">
                    <mxGeometry x="42.91" y="131.57" width="28.96" height="20.22" as="geometry"/>
                </mxCell>
                <mxCell id="40" value="&lt;font style=&quot;font-size: 20px;&quot;&gt;. . .&lt;/font&gt;" style="text;html=1;strokeColor=none;fillColor=none;align=center;verticalAlign=middle;whiteSpace=wrap;rounded=0;rotation=0;" vertex="1" parent="43">
                    <mxGeometry x="359.99718309859156" y="110.00310344827584" width="33.802816901408455" height="22.75862068965517" as="geometry"/>
                </mxCell>
                <mxCell id="41" value="&lt;font style=&quot;font-size: 12px;&quot;&gt;Profiles&lt;/font&gt;" style="text;html=1;strokeColor=none;fillColor=none;align=center;verticalAlign=middle;whiteSpace=wrap;rounded=0;fontSize=20;" vertex="1" parent="43">
                    <mxGeometry x="157.74647887323943" y="7.586206896551723" width="112.67605633802818" height="22.75862068965517" as="geometry"/>
                </mxCell>
                <mxCell id="118" value="" style="endArrow=none;dashed=1;html=1;strokeWidth=2;rounded=0;fontSize=12;exitX=0;exitY=0.5;exitDx=0;exitDy=0;entryX=0;entryY=0.5;entryDx=0;entryDy=0;" edge="1" parent="1" source="114" target="97">
                    <mxGeometry width="50" height="50" relative="1" as="geometry">
                        <mxPoint x="166.3221428571428" y="400.1072459788152" as="sourcePoint"/>
                        <mxPoint x="280.61214285714277" y="31.797245978815454" as="targetPoint"/>
                        <Array as="points">
                            <mxPoint x="40" y="602"/>
                            <mxPoint x="40" y="32"/>
                        </Array>
                    </mxGeometry>
                </mxCell>
                <mxCell id="144" value="" style="endArrow=classic;html=1;rounded=0;fontSize=12;entryX=1;entryY=0.5;entryDx=0;entryDy=0;exitX=0.5;exitY=1;exitDx=0;exitDy=0;exitPerimeter=0;" edge="1" parent="1" source="48" target="7">
                    <mxGeometry width="50" height="50" relative="1" as="geometry">
                        <mxPoint x="1130" y="290" as="sourcePoint"/>
                        <mxPoint x="750.2268852459015" y="330" as="targetPoint"/>
                        <Array as="points">
                            <mxPoint x="255" y="740"/>
                            <mxPoint x="1270" y="740"/>
                            <mxPoint x="1270" y="29"/>
                        </Array>
                    </mxGeometry>
                </mxCell>
                <mxCell id="143" value="$ &lt;b&gt;&lt;u&gt;orbit launch&lt;/u&gt;&lt;/b&gt;" style="rounded=1;whiteSpace=wrap;html=1;fontSize=12;" vertex="1" parent="1">
                    <mxGeometry x="280.00000000000006" y="717.87" width="90" height="38.46" as="geometry"/>
                </mxCell>
                <mxCell id="157" value="" style="endArrow=none;html=1;rounded=0;fontSize=12;exitDx=0;exitDy=0;endFill=0;startArrow=none;" edge="1" parent="1" source="167">
                    <mxGeometry width="50" height="50" relative="1" as="geometry">
                        <mxPoint x="1000" y="280" as="sourcePoint"/>
                        <mxPoint x="810" y="340" as="targetPoint"/>
                        <Array as="points"/>
                    </mxGeometry>
                </mxCell>
                <mxCell id="44" value="" style="shape=process;whiteSpace=wrap;html=1;backgroundOutline=1;fontSize=12;" vertex="1" parent="1">
                    <mxGeometry x="830" y="396.08" width="320" height="276.8181818181818" as="geometry"/>
                </mxCell>
                <mxCell id="47" value="Build Process" style="text;html=1;strokeColor=none;fillColor=none;align=center;verticalAlign=middle;whiteSpace=wrap;rounded=0;fontSize=12;" vertex="1" parent="1">
                    <mxGeometry x="990" y="396.08" width="100" height="39.55" as="geometry"/>
                </mxCell>
                <mxCell id="139" value="" style="group" vertex="1" connectable="0" parent="1">
                    <mxGeometry x="870" y="427.6172727272727" width="240" height="183.3" as="geometry"/>
                </mxCell>
                <mxCell id="148" value="" style="group" vertex="1" connectable="0" parent="139">
                    <mxGeometry x="5.11999999999999" y="11.139999999999993" width="231.01999999999998" height="170.25" as="geometry"/>
                </mxCell>
                <mxCell id="131" value="" style="shape=step;perimeter=stepPerimeter;whiteSpace=wrap;html=1;fixedSize=1;rounded=0;fontSize=12;rotation=90;" vertex="1" parent="148">
                    <mxGeometry x="70.9" y="-70.9" width="89.23" height="231.02" as="geometry"/>
                </mxCell>
                <mxCell id="132" value="Planning Stage" style="text;html=1;strokeColor=none;fillColor=none;align=center;verticalAlign=middle;whiteSpace=wrap;rounded=0;fontSize=12;" vertex="1" parent="148">
                    <mxGeometry x="50.51000000000001" y="24.835454545454567" width="130" height="39.54545454545455" as="geometry"/>
                </mxCell>
                <mxCell id="159" value="" style="endArrow=classic;html=1;rounded=0;fontSize=12;entryX=0.5;entryY=1;entryDx=0;entryDy=0;entryPerimeter=0;exitX=1;exitY=0.5;exitDx=0;exitDy=0;" edge="1" parent="1" source="150" target="50">
                    <mxGeometry width="50" height="50" relative="1" as="geometry">
                        <mxPoint x="1020" y="690" as="sourcePoint"/>
                        <mxPoint x="450" y="692" as="targetPoint"/>
                        <Array as="points">
                            <mxPoint x="990" y="692"/>
                            <mxPoint x="990" y="710"/>
                            <mxPoint x="940" y="710"/>
                            <mxPoint x="790" y="710"/>
                            <mxPoint x="470" y="710"/>
                        </Array>
                    </mxGeometry>
                </mxCell>
                <mxCell id="162" value="" style="endArrow=classic;html=1;rounded=0;fontSize=12;exitX=1;exitY=0.5;exitDx=0;exitDy=0;entryX=0;entryY=0.5;entryDx=0;entryDy=0;" edge="1" parent="1" source="131" target="150">
                    <mxGeometry width="50" height="50" relative="1" as="geometry">
                        <mxPoint x="995.5050000000001" y="672.9022727272727" as="sourcePoint"/>
                        <mxPoint x="990" y="580" as="targetPoint"/>
                        <Array as="points"/>
                    </mxGeometry>
                </mxCell>
                <mxCell id="150" value="" style="shape=step;perimeter=stepPerimeter;whiteSpace=wrap;html=1;fixedSize=1;rounded=0;fontSize=12;rotation=90;" vertex="1" parent="1">
                    <mxGeometry x="944.74" y="486.84727272727275" width="90.51" height="231.02" as="geometry"/>
                </mxCell>
                <mxCell id="142" value="" style="endArrow=classic;html=1;rounded=0;fontSize=12;entryX=0.5;entryY=0;entryDx=0;entryDy=0;entryPerimeter=0;exitX=1;exitY=0.5;exitDx=0;exitDy=0;" edge="1" parent="1" source="131" target="52">
                    <mxGeometry width="50" height="50" relative="1" as="geometry">
                        <mxPoint x="1000" y="640" as="sourcePoint"/>
                        <mxPoint x="1071.9499999999998" y="741" as="targetPoint"/>
                        <Array as="points">
                            <mxPoint x="990" y="540"/>
                            <mxPoint x="790" y="540"/>
                            <mxPoint x="640" y="540"/>
                            <mxPoint x="640" y="570"/>
                        </Array>
                    </mxGeometry>
                </mxCell>
                <mxCell id="155" value="" style="endArrow=classic;html=1;rounded=0;fontSize=12;entryX=0;entryY=0.5;entryDx=0;entryDy=0;exitDx=344.1000000000001;exitDy=30;exitPerimeter=0;startArrow=none;" edge="1" parent="1" source="167" target="131">
                    <mxGeometry width="50" height="50" relative="1" as="geometry">
                        <mxPoint x="1150" y="269.59727272727287" as="sourcePoint"/>
                        <mxPoint x="799.5968852459015" y="378.46000000000004" as="targetPoint"/>
                        <Array as="points">
                            <mxPoint x="990" y="340"/>
                            <mxPoint x="990" y="370"/>
                        </Array>
                    </mxGeometry>
                </mxCell>
                <mxCell id="151" value="Execution Stage" style="text;html=1;strokeColor=none;fillColor=none;align=center;verticalAlign=middle;whiteSpace=wrap;rounded=0;fontSize=12;" vertex="1" parent="1">
                    <mxGeometry x="920.51" y="582.5827272727273" width="130" height="39.54545454545455" as="geometry"/>
                </mxCell>
                <mxCell id="53" value="Target Output Directory" style="text;html=1;strokeColor=none;fillColor=none;align=center;verticalAlign=middle;whiteSpace=wrap;rounded=0;fontSize=12;" vertex="1" parent="1">
                    <mxGeometry x="397.7083606557377" y="530" width="320.90163934426226" height="30" as="geometry"/>
                </mxCell>
                <mxCell id="164" value="" style="endArrow=classic;html=1;rounded=0;fontSize=12;exitX=0;exitY=0;exitDx=154.55;exitDy=30;exitPerimeter=0;" edge="1" parent="1" source="52" target="150">
                    <mxGeometry width="50" height="50" relative="1" as="geometry">
                        <mxPoint x="1000.635" y="537.9822727272722" as="sourcePoint"/>
                        <mxPoint x="870" y="600" as="targetPoint"/>
                        <Array as="points">
                            <mxPoint x="750" y="600"/>
                            <mxPoint x="790" y="600"/>
                        </Array>
                    </mxGeometry>
                </mxCell>
                <mxCell id="165" value="" style="endArrow=none;html=1;rounded=0;fontSize=12;exitX=1;exitY=0.5;exitDx=0;exitDy=0;endFill=0;" edge="1" parent="1" source="102" target="167">
                    <mxGeometry width="50" height="50" relative="1" as="geometry">
                        <mxPoint x="1012.3800000000006" y="206.55000000000018" as="sourcePoint"/>
                        <mxPoint x="809.9255799999999" y="341.48954000000003" as="targetPoint"/>
                        <Array as="points"/>
                    </mxGeometry>
                </mxCell>
                <mxCell id="168" value="" style="endArrow=none;html=1;rounded=0;fontSize=12;exitX=1;exitY=0.5;exitDx=0;exitDy=0;endFill=0;entryDx=0;entryDy=0;entryPerimeter=0;" edge="1" parent="1" target="167">
                    <mxGeometry width="50" height="50" relative="1" as="geometry">
                        <mxPoint x="730" y="427.6199999999999" as="sourcePoint"/>
                        <mxPoint x="816.912016195" y="337.62881776363656" as="targetPoint"/>
                        <Array as="points"/>
                    </mxGeometry>
                </mxCell>
                <mxCell id="170" value="" style="endArrow=none;html=1;rounded=0;fontSize=12;entryDx=0;entryDy=0;exitX=0;exitY=0;exitDx=344.1000000000001;exitDy=30;exitPerimeter=0;" edge="1" parent="1" source="108" target="167">
                    <mxGeometry width="50" height="50" relative="1" as="geometry">
                        <mxPoint x="730" y="340" as="sourcePoint"/>
                        <mxPoint x="990.635" y="458.7522727272726" as="targetPoint"/>
                        <Array as="points"/>
                    </mxGeometry>
                </mxCell>
                <mxCell id="100" value="$ &lt;b&gt;&lt;u&gt;orbit build --target &quot;T2&quot;&lt;/u&gt;&lt;/b&gt;" style="rounded=1;whiteSpace=wrap;html=1;fontSize=12;" vertex="1" parent="1">
                    <mxGeometry x="810" y="320.77" width="170" height="38.46" as="geometry"/>
                </mxCell>
                <mxCell id="167" value="" style="shape=waypoint;sketch=0;size=6;pointerEvents=1;points=[];fillColor=none;resizable=0;rotatable=0;perimeter=centerPerimeter;snapToPoint=1;" vertex="1" parent="1">
                    <mxGeometry x="800" y="330" width="20" height="20" as="geometry"/>
                </mxCell>
                <mxCell id="171" value="" style="endArrow=none;dashed=1;html=1;strokeWidth=2;rounded=0;fontSize=12;exitX=0.5;exitY=0;exitDx=0;exitDy=0;entryX=0.75;entryY=1;entryDx=0;entryDy=0;" edge="1" parent="1" source="150" target="91">
                    <mxGeometry width="50" height="50" relative="1" as="geometry">
                        <mxPoint x="1355.1753161592505" y="631.3572459788152" as="sourcePoint"/>
                        <mxPoint x="1460.6121428571428" y="100.00479795998422" as="targetPoint"/>
                        <Array as="points">
                            <mxPoint x="1190" y="602"/>
                            <mxPoint x="1190" y="500"/>
                            <mxPoint x="1190" y="300"/>
                            <mxPoint x="924" y="300"/>
                        </Array>
                    </mxGeometry>
                </mxCell>
                <mxCell id="117" value="" style="endArrow=none;dashed=1;html=1;strokeWidth=2;rounded=0;fontSize=12;exitX=0;exitY=0.5;exitDx=0;exitDy=0;entryX=0;entryY=0.5;entryDx=0;entryDy=0;" edge="1" parent="1" source="113" target="98">
                    <mxGeometry width="50" height="50" relative="1" as="geometry">
                        <mxPoint x="440" y="220" as="sourcePoint"/>
                        <mxPoint x="200" y="40" as="targetPoint"/>
                        <Array as="points">
                            <mxPoint x="70" y="573"/>
                            <mxPoint x="70" y="60"/>
                        </Array>
                    </mxGeometry>
                </mxCell>
                <mxCell id="173" value="$ &lt;b&gt;&lt;u&gt;orbit remove&lt;/u&gt;&lt;/b&gt;" style="rounded=1;whiteSpace=wrap;html=1;fontSize=12;" vertex="1" parent="1">
                    <mxGeometry x="309.99999999999994" y="-60" width="94.29" height="38.46" as="geometry"/>
                </mxCell>
            </root>
        </mxGraphModel>
    </diagram>
</mxfile>